<svg version="1.1" id="Layer_1" xmlns="http://www.w3.org/2000/svg" xmlns:xlink="http://www.w3.org/1999/xlink" x="0px" y="0px"
	 width="100%" viewBox="0 0 1024 1024" enable-background="new 0 0 1024 1024" xml:space="preserve">
<path fill="#000000" opacity="1.000000" stroke="none" 
	d="
M350.759064,640.879639 
	C358.572479,613.835754 366.290314,587.182922 373.909485,560.870850 
	C372.992432,560.096497 372.712372,559.676270 372.502167,559.708679 
	C360.425995,561.572266 350.487823,556.231079 340.670502,550.377258 
	C335.949738,547.562378 331.071716,545.010071 326.367493,542.168945 
	C322.809875,540.020325 319.750488,537.343140 320.959503,532.521484 
	C322.188019,527.621948 326.030396,526.098145 330.481201,526.053589 
	C344.643799,525.911560 358.810303,526.089600 372.971375,525.879639 
	C385.870270,525.688354 383.437378,527.775391 387.345398,515.156860 
	C388.456482,511.569275 390.031525,508.060730 390.291718,503.354828 
	C378.657593,506.412750 369.857208,500.172394 360.526733,495.574463 
	C353.657990,492.189636 346.617554,489.154755 339.686829,485.893372 
	C335.908081,484.115204 333.364349,481.609711 334.621246,476.873901 
	C335.853333,472.231689 338.656891,469.750702 343.532837,469.746368 
	C360.863312,469.731049 378.194794,469.599579 395.523499,469.765503 
	C399.855316,469.806976 401.801575,468.602722 403.103058,464.086700 
	C414.212952,425.535889 425.640015,387.076141 437.069916,348.618195 
	C439.482208,340.501526 443.325928,338.185547 451.625122,339.346680 
	C464.304382,341.120575 477.075470,342.251068 489.648376,344.773682 
	C498.566132,346.562927 501.148346,350.704712 498.709534,359.409760 
	C489.230530,393.243530 479.244843,426.926117 468.559296,460.399811 
	C468.104034,461.826019 467.708710,463.272583 467.324463,464.720032 
	C466.403442,468.189392 467.690521,469.689880 471.326050,469.501678 
	C495.645355,468.242706 519.960571,469.789368 544.279419,469.679474 
	C555.110779,469.630524 565.945679,469.576813 576.772888,469.809357 
	C580.754272,469.894897 582.706726,468.621460 583.824402,464.631470 
	C591.636353,436.743896 599.692383,408.924805 607.637817,381.074493 
	C610.011597,372.753784 612.097656,364.346375 614.660889,356.085846 
	C616.527832,350.069305 620.384888,347.213379 626.224731,347.953613 
	C641.075806,349.835968 656.017395,351.229370 670.652588,354.520996 
	C677.954285,356.163300 679.828430,359.246033 678.037292,366.422394 
	C671.586243,392.269318 664.216858,417.866455 656.856750,443.465393 
	C654.480774,451.729156 652.213928,460.024292 649.844238,468.494293 
	C651.112549,468.947968 651.872986,469.465607 652.624146,469.452454 
	C668.606628,469.173553 680.952271,479.282288 695.082642,484.274750 
	C695.389709,484.383301 695.654907,484.613251 695.935913,484.792419 
	C701.544189,488.368011 704.739197,493.472839 703.297974,497.258179 
	C701.079407,503.085541 695.862061,503.228882 690.765381,503.239197 
	C675.767822,503.269623 660.768494,503.364258 645.773621,503.158478 
	C641.420227,503.098755 638.960999,504.286377 638.107666,508.865631 
	C637.318176,513.101929 635.768433,517.195068 634.580872,521.359070 
	C633.755188,524.254578 634.619080,525.928528 637.892029,525.784607 
	C638.390930,525.762695 638.902649,525.851746 639.390015,525.774109 
	C658.539001,522.726624 673.728760,532.638977 689.330750,541.109436 
	C691.038757,542.036743 692.526489,543.530396 693.824036,545.016602 
	C695.906860,547.402283 696.891846,550.223572 695.561218,553.344788 
	C694.192566,556.554932 691.660583,558.055237 688.161316,558.384277 
	C678.346252,559.307495 668.512146,558.893250 658.686951,558.985901 
	C648.856079,559.078552 639.021057,559.123230 629.192932,558.930359 
	C625.451172,558.856995 623.438110,560.032166 622.373840,563.804565 
	C612.112427,600.175476 601.677307,636.497375 591.374695,672.856689 
	C589.083862,680.941345 585.693298,683.984985 577.386780,683.157166 
	C562.980286,681.721558 548.602783,679.921814 534.263550,677.914490 
	C526.782471,676.867249 524.622986,672.809082 526.813599,664.786621 
	C531.504089,647.608582 536.340698,630.470459 541.122864,613.317505 
	C545.593201,597.283142 550.093262,581.257019 554.532654,565.214111 
	C556.116943,559.488647 555.812805,559.092163 549.605835,559.088379 
	C517.777283,559.068970 485.948700,559.099670 454.120117,559.101074 
	C439.162537,559.101746 439.184448,559.096191 435.057953,573.350464 
	C425.199646,607.404480 415.317719,641.451660 405.447266,675.502136 
	C403.025360,683.857117 399.817322,686.259277 391.254761,685.108948 
	C377.728516,683.291809 364.233459,681.221863 350.758148,679.054260 
	C343.871490,677.946533 341.415802,674.008850 343.246277,667.198669 
	C345.579376,658.518555 348.178864,649.910095 350.759064,640.879639 
M509.499969,525.727600 
	C526.645935,525.730469 543.791992,525.749084 560.937805,525.715881 
	C563.020081,525.711853 565.753235,526.377991 566.562866,523.698303 
	C568.505249,517.270081 570.908264,510.926483 571.829712,503.889191 
	C565.831787,502.846039 560.382935,504.107361 554.940979,504.018433 
	C523.490906,503.504272 492.029205,504.608124 460.580811,503.400543 
	C458.678253,503.327515 456.280090,502.777374 455.444916,505.319824 
	C453.335358,511.741943 451.393127,518.219055 449.056091,525.727295 
	C469.406921,525.727295 488.953430,525.727295 509.499969,525.727600 
M489.952271,365.418945 
	C490.558533,364.625854 491.239990,363.878906 491.759491,363.032562 
	C497.345123,353.933350 495.979156,350.267395 485.574158,348.367188 
	C475.110107,346.456207 464.512543,345.288116 453.997375,343.641724 
	C445.186096,342.262177 443.540710,343.106110 441.035889,351.696533 
	C435.258118,371.511719 429.580261,391.355988 423.863525,411.188995 
	C423.433105,412.682129 422.800110,414.191650 423.782532,415.800415 
	C424.257050,415.496918 424.445923,415.440491 424.525085,415.314850 
	C424.967102,414.613647 425.426636,413.918060 425.800659,413.180237 
	C435.803558,393.447723 450.831146,379.888672 472.636383,374.206726 
	C478.680573,372.631744 484.902557,370.813965 489.952271,365.418945 
M614.274231,373.689209 
	C609.932373,390.114166 605.590454,406.539093 601.248596,422.964020 
	C605.250916,415.100342 609.867432,407.842072 615.805481,401.417297 
	C626.462280,389.886963 640.598328,384.980896 655.072388,380.765778 
	C662.480408,378.608398 669.322388,375.745789 672.618469,368.080750 
	C675.394165,361.625916 673.797363,358.688049 666.886353,357.663605 
	C653.717407,355.711578 640.506958,354.038147 627.342896,352.055664 
	C622.665588,351.351257 619.998169,353.110229 618.776245,357.514465 
	C617.351746,362.649017 615.899109,367.775787 614.274231,373.689209 
M488.498657,474.227722 
	C480.511963,474.159088 472.522736,474.187500 464.539581,473.981781 
	C460.397766,473.875061 458.021729,475.457397 457.103241,479.621124 
	C455.886230,485.138428 454.343964,490.584290 452.922272,496.055878 
	C452.541473,497.521423 451.929443,499.055145 453.717377,500.007416 
	C455.694885,501.060669 456.387817,499.191925 457.243713,498.155090 
	C465.647034,487.975128 476.622955,482.060852 489.262421,479.147308 
	C496.996399,477.364502 504.756226,475.468994 512.813293,475.515625 
	C505.079010,473.977570 497.277313,474.317017 488.498657,474.227722 
M392.754395,480.210266 
	C397.209076,478.813416 401.663757,477.416534 406.118439,476.019684 
	C387.883270,473.775909 369.894043,474.252686 351.826660,474.989624 
	C359.840118,479.654480 369.962006,480.591858 374.401764,490.588806 
	C379.925842,485.732117 385.253510,481.794037 392.754395,480.210266 
M360.127747,554.776917 
	C365.529114,554.962646 371.006958,555.871033 376.457733,553.321350 
	C369.766815,549.598694 362.739258,546.665649 364.211945,537.030029 
	C358.017242,540.151184 352.170868,541.143127 345.823639,540.692261 
	C339.772552,540.262329 334.315796,537.590515 328.303284,536.913086 
	C338.108276,543.884216 348.256317,550.035889 360.127747,554.776917 
M439.216431,541.663086 
	C439.110016,543.704590 439.003601,545.746155 438.897217,547.787659 
	C442.008850,541.076965 444.626678,534.384155 445.404663,527.229736 
	C442.048309,529.623108 441.588867,530.804321 439.216431,541.663086 
z"/>
</svg>